<svg aria-hidden="true" style="position: absolute; width: 0; height: 0; overflow: hidden;" version="1.1" xmlns="http://www.w3.org/2000/svg" xmlns:xlink="http://www.w3.org/1999/xlink">
  <defs>
    <symbol id="icon-burger" viewBox="0 0 23 16">
      <path d="M0.833313 0H22.1666V2.66667H0.833313V0ZM0.833313 6.66667H22.1666V9.33333H0.833313V6.66667ZM0.833313 13.3333H22.1666V16H0.833313V13.3333Z" fill="#080C09" />
    </symbol>
    <symbol id="icon-close" viewBox="0 0 16 16">
      <path d="M13.5893 0.458984L7.93196 6.11498L2.27596 0.458984L0.390625 2.34432L6.04662 8.00032L0.390625 13.6563L2.27596 15.5417L7.93196 9.88565L13.5893 15.5417L15.4746 13.6563L9.81863 8.00032L15.4746 2.34432L13.5893 0.458984Z" fill="#080C09" />
    </symbol>
    <symbol id="company-logo" viewBox="0 0 159 35">
      <path d="M16.6901 0.138163C26.262 -0.754971 34.7434 6.2861 35.6267 15.8589C36.51 25.4321 29.4604 33.9058 19.8867 34.7793C10.3267 35.6519 1.86742 28.6145 0.985354 19.0553C0.103384 9.49639 7.13198 1.0299 16.6901 0.138163ZM20.161 32.9383C28.7063 31.9123 34.8001 24.1503 33.769 15.606C32.7379 7.06137 24.9724 0.972323 16.4284 2.0089C7.89209 3.04446 1.80974 10.8014 2.8399 19.3381C3.87015 27.8759 11.6232 33.9625 20.161 32.9383Z" fill="#080C09"/>
      <path d="M25.1137 8.40577L27.116 8.39209C27.1549 14.1708 27.1577 19.9499 27.1246 25.7286L25.0543 25.7547L25.0512 14.8968L25.0417 11.9235C23.8853 14.1182 22.5724 16.228 21.3215 18.3694C20.5287 19.7266 19.7923 21.2839 18.8112 22.5044C18.5771 22.5899 18.3233 22.5965 18.0794 22.5406C17.9997 22.522 17.8328 22.4597 17.7723 22.4113C17.2431 21.989 12.2667 13.2471 11.472 11.9214C11.676 13.4934 11.5478 15.2087 11.5469 16.7956L11.5409 25.7119L9.42383 25.7193C9.48941 19.9499 9.38587 14.1764 9.44122 8.40567L11.7466 8.41767C12.7717 10.2505 13.8714 12.0451 14.9344 13.8564C16.0641 15.7813 17.1642 17.7294 18.3644 19.6113C19.5854 17.3815 20.9508 15.2203 22.2634 13.0421C23.1931 11.4994 24.072 9.87473 25.1137 8.40577Z" fill="#080C09"/>
      <path d="M131.122 12.5237C131.531 12.4962 131.95 12.4854 132.36 12.4927C133.886 12.5199 135.445 13.3361 136.49 14.4182C137.792 15.7665 138.397 17.647 138.353 19.5019C138.309 21.3894 137.602 23.1839 136.213 24.4788C134.981 25.6258 133.403 26.2397 131.716 26.1765C129.784 26.1039 128.503 25.2899 127.207 23.9067C127.157 24.6983 127.172 25.4993 127.164 26.2928C127.173 27.8686 127.171 29.4444 127.158 31.0212C126.423 31.0938 125.682 31.0873 124.948 31.0008C125.068 28.5607 124.962 26.0621 124.963 23.6155C124.963 19.9764 125.021 16.3275 124.939 12.6895L127.125 12.681C127.082 13.4928 127.092 14.3129 127.08 15.1261C128.265 13.6481 129.253 12.9356 131.122 12.5237ZM132.069 24.2239C133.428 23.969 134.481 23.4146 135.279 22.2415C136.059 21.0741 136.339 19.6424 136.055 18.2675C135.812 17.0422 135.086 15.8841 134.019 15.2145C133.179 14.6874 132.27 14.5426 131.3 14.57C129.953 14.8246 128.861 15.3044 128.053 16.4786C127.292 17.5847 126.965 19.1596 127.222 20.475C127.466 21.7383 128.214 22.8471 129.296 23.5429C130.159 24.0853 131.069 24.2416 132.069 24.2239Z" fill="#080C09"/>
      <path d="M90.3299 7.04053C90.6862 7.40667 90.7969 8.37284 91.009 8.89024C88.715 9.85305 85.3893 9.65509 83.5447 11.4172C82.4414 12.4713 82.1781 13.9288 82.1549 15.3815C83.1419 14.1624 84.2237 13.1746 85.8424 12.9041C87.4778 12.6306 89.2108 12.947 90.5522 13.9452C91.9932 15.0179 92.7951 16.5729 93.036 18.3342C93.3123 20.3585 92.8081 22.2673 91.5662 23.8841C90.6667 24.8823 89.6201 25.62 88.302 25.9428C86.6331 26.3521 84.7279 26.14 83.2572 25.2274C81.58 24.1855 80.6144 22.4664 80.1958 20.5752C79.5706 17.7491 79.6934 13.5255 81.3223 11.017C82.7586 8.80401 84.9279 8.36586 87.3382 7.79264C88.3392 7.55459 89.3262 7.26165 90.3299 7.04053ZM86.5159 24.2357C87.9364 24.0255 88.9931 23.685 89.8759 22.4645C90.742 21.2682 91.022 19.7575 90.7532 18.3194C90.5364 17.1588 89.9252 16.0973 88.9289 15.4405C88.3187 15.0371 87.6108 14.8059 86.8796 14.7713C85.4972 14.9258 84.3605 15.2121 83.4405 16.3522C82.5772 17.4226 82.2079 18.8682 82.3986 20.2245C82.5725 21.4617 83.2488 22.6525 84.2647 23.3902C84.9521 23.8888 85.6898 24.1074 86.5159 24.2357Z" fill="#080C09"/>
      <path d="M59.2475 7.92097C60.0551 7.83995 60.8953 7.87874 61.7075 7.87306C61.5979 13.8191 61.7287 19.7826 61.6945 25.7315L59.5532 25.7101L59.5565 15.1914C59.5507 13.9863 59.5256 12.7786 59.5994 11.5752C57.626 15.2199 55.8455 19.0244 53.6841 22.5585L52.2927 22.551C50.1637 19.0607 48.392 15.2997 46.4233 11.7131C46.5003 13.3579 46.4482 15.0281 46.4493 16.6754L46.4541 25.7325C45.7402 25.7139 45.0291 25.7604 44.3143 25.7269L44.3153 14.892C44.3168 12.5629 44.2712 10.2192 44.3989 7.89334L46.7813 7.89464C47.4585 9.05578 48.0341 10.3 48.6494 11.4961C50.0767 14.2708 51.4896 17.0756 53.0294 19.7891C55.2926 15.9518 57.084 11.8185 59.2475 7.92097Z" fill="#080C09"/>
      <path d="M70.2607 12.5278C70.5875 12.5103 70.9146 12.4979 71.2417 12.4907C72.956 12.4626 74.6643 12.9303 75.9002 14.1726C77.5536 15.8344 77.7181 17.9287 77.7184 20.1417C74.1499 20.1873 70.5764 20.1389 67.0071 20.1547C67.1172 20.7436 67.228 21.3073 67.5082 21.845C68.066 22.9204 69.0342 23.7251 70.1934 24.0767C71.5809 24.4972 72.9765 24.2506 74.2246 23.5623C74.6433 23.2776 75.0262 22.9446 75.4159 22.6227C75.976 22.9427 76.5429 23.2097 77.135 23.4655C76.2543 24.6534 75.1191 25.5195 73.6823 25.913C71.8428 26.4163 69.6007 26.219 67.9436 25.2441C66.4907 24.3874 65.4482 22.9771 65.0557 21.3371C64.5662 19.365 64.8396 17.2079 65.9097 15.4733C66.9412 13.8012 68.3886 12.975 70.2607 12.5278ZM67.03 18.4747C68.7976 18.4608 70.5652 18.4552 72.3329 18.4598L75.6369 18.4617C75.3147 17.1058 74.9918 15.8488 73.73 15.055C72.8069 14.4742 71.6874 14.3857 70.6249 14.4743C69.4775 14.7392 68.5103 15.2614 67.8555 16.2727C67.4122 16.9575 67.2156 17.6933 67.03 18.4747Z" fill="#080C09"/>
      <path d="M114.654 12.524C114.975 12.508 115.295 12.4973 115.616 12.4919C117.325 12.4734 119.034 12.9807 120.255 14.2283C121.86 15.8704 122.008 17.966 122.001 20.1335C118.447 20.1874 114.885 20.1446 111.33 20.153C111.377 20.8014 111.491 21.3596 111.794 21.9428C112.354 23.0228 113.284 23.7373 114.444 24.0768C115.995 24.5326 117.407 24.1959 118.779 23.4349C119.113 23.2042 119.411 22.9224 119.715 22.6526C120.279 22.9559 120.85 23.2015 121.444 23.4377C120.514 24.6592 119.358 25.5448 117.857 25.9252C115.99 26.3987 113.846 26.2173 112.18 25.2117C110.701 24.3187 109.687 22.847 109.298 21.1707C108.855 19.2563 109.164 17.0544 110.234 15.3946C111.304 13.7352 112.767 12.9321 114.654 12.524ZM111.31 18.4702C113.003 18.4655 114.697 18.4423 116.389 18.46L119.975 18.4581C119.603 17.0639 119.213 15.7056 117.864 14.9387C117.029 14.4632 116.011 14.3822 115.068 14.4776C113.949 14.6628 113.003 15.0838 112.308 16.0194C111.757 16.7603 111.523 17.5883 111.31 18.4702Z" fill="#080C09"/>
      <path d="M151.559 12.7119C153.724 12.6104 155.92 12.684 158.089 12.6909C157.978 17.025 158.077 21.3884 158.075 25.7261L155.845 25.7019L155.843 21.2488C154.778 21.2423 153.375 21.0339 152.359 21.2758C152.042 21.3511 151.985 21.5112 151.808 21.7577C151.055 23.0926 150.218 24.381 149.462 25.7168C148.62 25.7354 147.776 25.7382 146.933 25.7233C147.758 24.1745 148.878 22.2033 149.97 20.8618C149.84 20.7986 149.712 20.7316 149.585 20.6628C148.633 20.1372 147.904 19.2916 147.625 18.2311C147.335 17.1256 147.493 15.8638 148.085 14.8822C148.882 13.5579 150.13 13.0488 151.559 12.7119ZM153.846 19.38C154.504 19.3744 155.176 19.3948 155.833 19.3474C155.824 17.806 155.828 16.2645 155.845 14.7231C154.537 14.7184 153.211 14.6833 151.905 14.7549C151.081 15.0131 150.437 15.2916 149.993 16.0859C149.698 16.6139 149.619 17.3105 149.818 17.8841C150.01 18.4395 150.456 18.8292 150.981 19.0665C151.866 19.4665 152.897 19.3883 153.846 19.38Z" fill="#080C09"/>
      <path d="M97.5638 12.831C100.388 12.7291 103.236 12.7952 106.064 12.79L106.05 25.7239C105.346 25.7137 104.639 25.6839 103.941 25.7797L103.93 14.8237L102.732 14.872C101.663 14.8192 100.569 14.8896 99.4978 14.9148C99.468 17.5219 99.4578 22.9266 97.6317 24.856C96.721 25.8179 95.6921 25.9164 94.4484 25.9267C94.4391 25.2467 94.4028 24.575 94.3535 23.8969C94.6782 23.8671 95.0224 23.8448 95.3387 23.7648C97.3043 23.269 97.3387 16.7739 97.388 15.1362C97.4075 14.498 97.2661 13.3505 97.5638 12.831Z" fill="#080C09"/>
      <path d="M143.372 12.7358L143.661 12.7188C143.695 12.7657 143.745 12.8049 143.766 12.8597C143.863 13.1141 143.763 24.4126 143.764 25.7187L141.87 25.7317L141.731 25.7038C141.427 25.1559 141.732 14.3891 141.637 12.7615C142.215 12.7687 142.794 12.7493 143.372 12.7358Z" fill="#080C09"/>
      <path d="M141.597 7.85807L143.775 7.85156C143.752 8.62469 143.77 9.39848 143.781 10.1717L141.538 10.1886C141.571 9.41215 141.59 8.63521 141.597 7.85807Z" fill="#080C09"/>
    </symbol>
  </defs>
</svg>