<svg aria-hidden="true" style="position: absolute; width: 0; height: 0; overflow: hidden;" version="1.1" xmlns="http://www.w3.org/2000/svg" xmlns:xlink="http://www.w3.org/1999/xlink">
  <defs>
    <symbol id="icon-burger" viewBox="0 0 23 16">
      <path d="M0.833313 0H22.1666V2.66667H0.833313V0ZM0.833313 6.66667H22.1666V9.33333H0.833313V6.66667ZM0.833313 13.3333H22.1666V16H0.833313V13.3333Z" fill="#080C09" />
    </symbol>
    <symbol id="icon-close" viewBox="0 0 16 16">
      <path d="M13.5893 0.458984L7.93196 6.11498L2.27596 0.458984L0.390625 2.34432L6.04662 8.00032L0.390625 13.6563L2.27596 15.5417L7.93196 9.88565L13.5893 15.5417L15.4746 13.6563L9.81863 8.00032L15.4746 2.34432L13.5893 0.458984Z" fill="#080C09" />
    </symbol>
    <symbol id="company-logo" viewBox="0 0 159 35">
      <path d="M16.6901 0.138163C26.262 -0.754971 34.7434 6.2861 35.6267 15.8589C36.51 25.4321 29.4604 33.9058 19.8867 34.7793C10.3267 35.6519 1.86742 28.6145 0.985354 19.0553C0.103384 9.49639 7.13198 1.0299 16.6901 0.138163ZM20.161 32.9383C28.7063 31.9123 34.8001 24.1503 33.769 15.606C32.7379 7.06137 24.9724 0.972323 16.4284 2.0089C7.89209 3.04446 1.80974 10.8014 2.8399 19.3381C3.87015 27.8759 11.6232 33.9625 20.161 32.9383Z" fill="#080C09"/>
      <path d="M25.1137 8.40577L27.116 8.39209C27.1549 14.1708 27.1577 19.9499 27.1246 25.7286L25.0543 25.7547L25.0512 14.8968L25.0417 11.9235C23.8853 14.1182 22.5724 16.228 21.3215 18.3694C20.5287 19.7266 19.7923 21.2839 18.8112 22.5044C18.5771 22.5899 18.3233 22.5965 18.0794 22.5406C17.9997 22.522 17.8328 22.4597 17.7723 22.4113C17.2431 21.989 12.2667 13.2471 11.472 11.9214C11.676 13.4934 11.5478 15.2087 11.5469 16.7956L11.5409 25.7119L9.42383 25.7193C9.48941 19.9499 9.38587 14.1764 9.44122 8.40567L11.7466 8.41767C12.7717 10.2505 13.8714 12.0451 14.9344 13.8564C16.0641 15.7813 17.1642 17.7294 18.3644 19.6113C19.5854 17.3815 20.9508 15.2203 22.2634 13.0421C23.1931 11.4994 24.072 9.87473 25.1137 8.40577Z" fill="#080C09"/>
      <path d="M131.122 12.5237C131.531 12.4962 131.95 12.4854 132.36 12.4927C133.886 12.5199 135.445 13.3361 136.49 14.4182C137.792 15.7665 138.397 17.647 138.353 19.5019C138.309 21.3894 137.602 23.1839 136.213 24.4788C134.981 25.6258 133.403 26.2397 131.716 26.1765C129.784 26.1039 128.503 25.2899 127.207 23.9067C127.157 24.6983 127.172 25.4993 127.164 26.2928C127.173 27.8686 127.171 29.4444 127.158 31.0212C126.423 31.0938 125.682 31.0873 124.948 31.0008C125.068 28.5607 124.962 26.0621 124.963 23.6155C124.963 19.9764 125.021 16.3275 124.939 12.6895L127.125 12.681C127.082 13.4928 127.092 14.3129 127.08 15.1261C128.265 13.6481 129.253 12.9356 131.122 12.5237ZM132.069 24.2239C133.428 23.969 134.481 23.4146 135.279 22.2415C136.059 21.0741 136.339 19.6424 136.055 18.2675C135.812 17.0422 135.086 15.8841 134.019 15.2145C133.179 14.6874 132.27 14.5426 131.3 14.57C129.953 14.8246 128.861 15.3044 128.053 16.4786C127.292 17.5847 126.965 19.1596 127.222 20.475C127.466 21.7383 128.214 22.8471 129.296 23.5429C130.159 24.0853 131.069 24.2416 132.069 24.2239Z" fill="#080C09"/>
      <path d="M90.3299 7.04053C90.6862 7.40667 90.7969 8.37284 91.009 8.89024C88.715 9.85305 85.3893 9.65509 83.5447 11.4172C82.4414 12.4713 82.1781 13.9288 82.1549 15.3815C83.1419 14.1624 84.2237 13.1746 85.8424 12.9041C87.4778 12.6306 89.2108 12.947 90.5522 13.9452C91.9932 15.0179 92.7951 16.5729 93.036 18.3342C93.3123 20.3585 92.8081 22.2673 91.5662 23.8841C90.6667 24.8823 89.6201 25.62 88.302 25.9428C86.6331 26.3521 84.7279 26.14 83.2572 25.2274C81.58 24.1855 80.6144 22.4664 80.1958 20.5752C79.5706 17.7491 79.6934 13.5255 81.3223 11.017C82.7586 8.80401 84.9279 8.36586 87.3382 7.79264C88.3392 7.55459 89.3262 7.26165 90.3299 7.04053ZM86.5159 24.2357C87.9364 24.0255 88.9931 23.685 89.8759 22.4645C90.742 21.2682 91.022 19.7575 90.7532 18.3194C90.5364 17.1588 89.9252 16.0973 88.9289 15.4405C88.3187 15.0371 87.6108 14.8059 86.8796 14.7713C85.4972 14.9258 84.3605 15.2121 83.4405 16.3522C82.5772 17.4226 82.2079 18.8682 82.3986 20.2245C82.5725 21.4617 83.2488 22.6525 84.2647 23.3902C84.9521 23.8888 85.6898 24.1074 86.5159 24.2357Z" fill="#080C09"/>
      <path d="M59.247company-logo5 7.92097C60.0551 7.83995 60.8953 7.87874 61.7075 7.87306C61.5979 13.8191 61.7287 19.7826 61.6945 25.7315L59.5532 25.7101L59.5565 15.1914C59.5507 13.9863 59.5256 12.7786 59.5994 11.5752C57.626 15.2199 55.8455 19.0244 53.6841 22.5585L52.2927 22.551C50.1637 19.0607 48.392 15.2997 46.4233 11.7131C46.5003 13.3579 46.4482 15.0281 46.4493 16.6754L46.4541 25.7325C45.7402 25.7139 45.0291 25.7604 44.3143 25.7269L44.3153 14.892C44.3168 12.5629 44.2712 10.2192 44.3989 7.89334L46.7813 7.89464C47.4585 9.05578 48.0341 10.3 48.6494 11.4961C50.0767 14.2708 51.4896 17.0756 53.0294 19.7891C55.2926 15.9518 57.084 11.8185 59.2475 7.92097Z" fill="#080C09"/>
      <path d="M70.2607 12.5278C70.5875 12.5103 70.9146 12.4979 71.2417 12.4907C72.956 12.4626 74.6643 12.9303 75.9002 14.1726C77.5536 15.8344 77.7181 17.9287 77.7184 20.1417C74.1499 20.1873 70.5764 20.1389 67.0071 20.1547C67.1172 20.7436 67.228 21.3073 67.5082 21.845C68.066 22.9204 69.0342 23.7251 70.1934 24.0767C71.5809 24.4972 72.9765 24.2506 74.2246 23.5623C74.6433 23.2776 75.0262 22.9446 75.4159 22.6227C75.976 22.9427 76.5429 23.2097 77.135 23.4655C76.2543 24.6534 75.1191 25.5195 73.6823 25.913C71.8428 26.4163 69.6007 26.219 67.9436 25.2441C66.4907 24.3874 65.4482 22.9771 65.0557 21.3371C64.5662 19.365 64.8396 17.2079 65.9097 15.4733C66.9412 13.8012 68.3886 12.975 70.2607 12.5278ZM67.03 18.4747C68.7976 18.4608 70.5652 18.4552 72.3329 18.4598L75.6369 18.4617C75.3147 17.1058 74.9918 15.8488 73.73 15.055C72.8069 14.4742 71.6874 14.3857 70.6249 14.4743C69.4775 14.7392 68.5103 15.2614 67.8555 16.2727C67.4122 16.9575 67.2156 17.6933 67.03 18.4747Z" fill="#080C09"/>
      <path d="M114.654 12.524C114.975 12.508 115.295 12.4973 115.616 12.4919C117.325 12.4734 119.034 12.9807 120.255 14.2283C121.86 15.8704 122.008 17.966 122.001 20.1335C118.447 20.1874 114.885 20.1446 111.33 20.153C111.377 20.8014 111.491 21.3596 111.794 21.9428C112.354 23.0228 113.284 23.7373 114.444 24.0768C115.995 24.5326 117.407 24.1959 118.779 23.4349C119.113 23.2042 119.411 22.9224 119.715 22.6526C120.279 22.9559 120.85 23.2015 121.444 23.4377C120.514 24.6592 119.358 25.5448 117.857 25.9252C115.99 26.3987 113.846 26.2173 112.18 25.2117C110.701 24.3187 109.687 22.847 109.298 21.1707C108.855 19.2563 109.164 17.0544 110.234 15.3946C111.304 13.7352 112.767 12.9321 114.654 12.524ZM111.31 18.4702C113.003 18.4655 114.697 18.4423 116.389 18.46L119.975 18.4581C119.603 17.0639 119.213 15.7056 117.864 14.9387C117.029 14.4632 116.011 14.3822 115.068 14.4776C113.949 14.6628 113.003 15.0838 112.308 16.0194C111.757 16.7603 111.523 17.5883 111.31 18.4702Z" fill="#080C09"/>
      <path d="M151.559 12.7119C153.724 12.6104 155.92 12.684 158.089 12.6909C157.978 17.025 158.077 21.3884 158.075 25.7261L155.845 25.7019L155.843 21.2488C154.778 21.2423 153.375 21.0339 152.359 21.2758C152.042 21.3511 151.985 21.5112 151.808 21.7577C151.055 23.0926 150.218 24.381 149.462 25.7168C148.62 25.7354 147.776 25.7382 146.933 25.7233C147.758 24.1745 148.878 22.2033 149.97 20.8618C149.84 20.7986 149.712 20.7316 149.585 20.6628C148.633 20.1372 147.904 19.2916 147.625 18.2311C147.335 17.1256 147.493 15.8638 148.085 14.8822C148.882 13.5579 150.13 13.0488 151.559 12.7119ZM153.846 19.38C154.504 19.3744 155.176 19.3948 155.833 19.3474C155.824 17.806 155.828 16.2645 155.845 14.7231C154.537 14.7184 153.211 14.6833 151.905 14.7549C151.081 15.0131 150.437 15.2916 149.993 16.0859C149.698 16.6139 149.619 17.3105 149.818 17.8841C150.01 18.4395 150.456 18.8292 150.981 19.0665C151.866 19.4665 152.897 19.3883 153.846 19.38Z" fill="#080C09"/>
      <path d="M97.5638 12.831C100.388 12.7291 103.236 12.7952 106.064 12.79L106.05 25.7239C105.346 25.7137 104.639 25.6839 103.941 25.7797L103.93 14.8237L102.732 14.872C101.663 14.8192 100.569 14.8896 99.4978 14.9148C99.468 17.5219 99.4578 22.9266 97.6317 24.856C96.721 25.8179 95.6921 25.9164 94.4484 25.9267C94.4391 25.2467 94.4028 24.575 94.3535 23.8969C94.6782 23.8671 95.0224 23.8448 95.3387 23.7648C97.3043 23.269 97.3387 16.7739 97.388 15.1362C97.4075 14.498 97.2661 13.3505 97.5638 12.831Z" fill="#080C09"/>
      <path d="M143.372 12.7358L143.661 12.7188C143.695 12.7657 143.745 12.8049 143.766 12.8597C143.863 13.1141 143.763 24.4126 143.764 25.7187L141.87 25.7317L141.731 25.7038C141.427 25.1559 141.732 14.3891 141.637 12.7615C142.215 12.7687 142.794 12.7493 143.372 12.7358Z" fill="#080C09"/>
      <path d="M141.597 7.85807L143.775 7.85156C143.752 8.62469 143.77 9.39848 143.781 10.1717L141.538 10.1886C141.571 9.41215 141.59 8.63521 141.597 7.85807Z" fill="#080C09"/>
    </symbol>
    <symbol id="youtube" viewBox="0 0 24 24">
      <path d="M21.5933 7.20301C21.4794 6.78041 21.2568 6.39501 20.9477 6.08518C20.6386 5.77534 20.2537 5.55187 19.8313 5.43701C18.2653 5.00701 12.0003 5.00001 12.0003 5.00001C12.0003 5.00001 5.73633 4.99301 4.16933 5.40401C3.74725 5.52415 3.36315 5.75078 3.0539 6.06214C2.74464 6.3735 2.52062 6.75913 2.40333 7.18201C1.99033 8.74801 1.98633 11.996 1.98633 11.996C1.98633 11.996 1.98233 15.26 2.39233 16.81C2.62233 17.667 3.29733 18.344 4.15533 18.575C5.73733 19.005 11.9853 19.012 11.9853 19.012C11.9853 19.012 18.2503 19.019 19.8163 18.609C20.2388 18.4943 20.6241 18.2714 20.934 17.9622C21.2439 17.653 21.4677 17.2682 21.5833 16.846C21.9973 15.281 22.0003 12.034 22.0003 12.034C22.0003 12.034 22.0203 8.76901 21.5933 7.20301ZM9.99633 15.005L10.0013 9.00501L15.2083 12.01L9.99633 15.005Z" fill="#080C09"/>
    </symbol>
    <symbol id="instagram" viewBox="0 0 24 24">
      <path d="M11.9988 4.62091C14.4032 4.62091 14.6878 4.63159 15.6332 4.67378C16.5123 4.71258 16.9864 4.85994 17.303 4.98311C17.7215 5.14509 18.0235 5.34194 18.3362 5.65465C18.6528 5.97129 18.8458 6.26994 19.0111 6.68838C19.1343 7.00503 19.2816 7.48253 19.3204 8.35822C19.3626 9.3076 19.3733 9.59218 19.3733 11.9932C19.3733 14.3942 19.3626 14.6821 19.3204 15.6281C19.2816 16.5072 19.1343 16.9813 19.0111 17.298C18.8491 17.7164 18.6528 18.0184 18.3396 18.3311C18.0229 18.6478 17.7243 18.8407 17.3064 19.0061C16.9898 19.1292 16.5117 19.2766 15.6366 19.3154C14.6872 19.3576 14.4026 19.3683 12.0016 19.3683C9.60062 19.3683 9.31266 19.3576 8.36666 19.3154C7.48759 19.2766 7.01346 19.1292 6.69682 19.0061C6.27838 18.8441 5.97635 18.6478 5.66308 18.3345C5.34644 18.0179 5.15353 17.7192 4.98817 17.3013C4.865 16.9847 4.71765 16.5066 4.67884 15.6315C4.63666 14.6821 4.62597 14.3975 4.62597 11.9965C4.62597 9.59556 4.63666 9.3076 4.67884 8.3616C4.71765 7.48253 4.865 7.0084 4.98817 6.69176C5.15015 6.27331 5.347 5.97129 5.65971 5.65802C5.97635 5.34137 6.275 5.14846 6.69344 4.98311C7.01009 4.85994 7.48759 4.71258 8.36328 4.67378C9.30872 4.63159 9.59387 4.62091 11.9982 4.62091H11.9988ZM11.9988 3.00056C9.55563 3.00056 9.25023 3.01125 8.29017 3.05343C7.33405 3.09561 6.67657 3.25028 6.1074 3.47187C5.51348 3.70359 5.01067 4.00955 4.5118 4.51236C4.00899 5.01179 3.70303 5.51404 3.47131 6.10459C3.24972 6.6777 3.09505 7.33123 3.05287 8.28736C3.01069 9.25079 3 9.55619 3 11.9994C3 14.4425 3.01069 14.7479 3.05287 15.708C3.09505 16.6641 3.24972 17.3216 3.47131 17.8908C3.70359 18.4847 4.00899 18.9875 4.5118 19.4864C5.01067 19.9852 5.51348 20.2951 6.10402 20.5235C6.67713 20.7451 7.33067 20.8997 8.28679 20.9419C9.24629 20.9841 9.55225 20.9948 11.9954 20.9948C14.4386 20.9948 14.7446 20.9841 15.7041 20.9419C16.6602 20.8997 17.3177 20.7451 17.8868 20.5235C18.4774 20.2951 18.9802 19.9858 19.4791 19.4864C19.9779 18.9869 20.2878 18.4847 20.5162 17.8941C20.7378 17.321 20.8924 16.6675 20.9346 15.7114C20.9768 14.7519 20.9875 14.4459 20.9875 12.0027C20.9875 9.55956 20.9768 9.25417 20.9346 8.29411C20.8924 7.33798 20.7378 6.68051 20.5162 6.11133C20.2946 5.51348 19.9886 5.01123 19.4864 4.5118C18.9875 4.01293 18.4847 3.70303 17.8941 3.47469C17.321 3.25309 16.6675 3.09842 15.7114 3.05624C14.7485 3.01069 14.4425 3 11.9994 3L11.9988 3.00056Z" fill="#080C09"/>
      <path d="M11.9985 7.37671C9.44683 7.37671 7.37598 9.447 7.37598 11.9993C7.37598 14.5516 9.44626 16.6219 11.9985 16.6219C14.5508 16.6219 16.6211 14.5516 16.6211 11.9993C16.6211 9.44756 14.5508 7.37671 11.9985 7.37671ZM11.9985 14.9976C10.3428 14.9976 9.00026 13.6551 9.00026 11.9993C9.00026 10.3435 10.3428 9.00099 11.9985 9.00099C13.6543 9.00099 14.9968 10.3435 14.9968 11.9993C14.9968 13.6551 13.6543 14.9976 11.9985 14.9976Z" fill="#080C09"/>
      <path d="M17.8822 7.19404C17.8822 7.79021 17.3991 8.27333 16.8029 8.27333C16.2068 8.27333 15.7236 7.79021 15.7236 7.19404C15.7236 6.59787 16.2068 6.11475 16.8029 6.11475C17.3991 6.11475 17.8822 6.59787 17.8822 7.19404Z" fill="#080C09"/>
    </symbol>
    <symbol id="facebook" viewBox="0 0 24 24">
      <path d="M22 12.3038C22 6.74719 17.5229 2.24268 12 2.24268C6.47715 2.24268 2 6.74719 2 12.3038C2 17.3255 5.65684 21.4879 10.4375 22.2427V15.2121H7.89844V12.3038H10.4375V10.0872C10.4375 7.56564 11.9305 6.1728 14.2146 6.1728C15.3088 6.1728 16.4531 6.36931 16.4531 6.36931V8.84529H15.1922C13.95 8.84529 13.5625 9.6209 13.5625 10.4166V12.3038H16.3359L15.8926 15.2121H13.5625V22.2427C18.3432 21.4879 22 17.3257 22 12.3038Z" fill="#080C09"/>
    </symbol>
    <symbol id="arrow-back" viewBox="0 0 24 24">
      <path d="M20.9999 11H6.41394L11.7069 5.70697L10.2929 4.29297L2.58594 12L10.2929 19.707L11.7069 18.293L6.41394 13H20.9999V11Z" fill="#080C09"/>
    </symbol>
    <symbol id="chevron-down" viewBox="0 0 24 24">
      <path d="M16.293 8.29297L12 12.586L7.70697 8.29297L6.29297 9.70697L12 15.414L17.707 9.70697L16.293 8.29297Z" fill="#080C09"/>
    </symbol>
    <symbol id="chevron-left" viewBox="0 0 24 24">
      <path d="M13.2929 6.29297L7.58594 12L13.2929 17.707L14.7069 16.293L10.4139 12L14.7069 7.70697L13.2929 6.29297Z" fill="#080C09"/>
    </symbol>
    <symbol id="chevron-right" viewBox="0 0 24 24">
      <path d="M9.70697 16.9496L15.414 11.2426L9.70697 5.53564L8.29297 6.94964L12.586 11.2426L8.29297 15.5356L9.70697 16.9496Z" fill="#080C09"/>
    </symbol>
    <symbol id="chevron-up" viewBox="0 0 24 24">
      <path d="M6.29297 14.2929L7.70697 15.7069L12 11.4139L16.293 15.7069L17.707 14.2929L12 8.58594L6.29297 14.2929Z" fill="#080C09"/>
    </symbol>
    <symbol id="down-arrow-alt" viewBox="0 0 24 24">
      <path d="M18.707 12.707L17.293 11.293L13 15.586V6H11V15.586L6.70697 11.293L5.29297 12.707L12 19.414L18.707 12.707Z" fill="#080C09"/>
    </symbol>
    <symbol id="left-arrow-alt" viewBox="0 0 24 24">
      <path d="M12.7069 17.293L8.41394 13H17.9999V11H8.41394L12.7069 6.70697L11.2929 5.29297L4.58594 12L11.2929 18.707L12.7069 17.293Z" fill="#080C09"/>
    </symbol>
    <symbol id="minus" viewBox="0 0 24 24">
      <path d="M5 11H19V13H5V11Z" fill="#080C09"/>
    </symbol>
    <symbol id="plus" viewBox="0 0 24 24">
      <path d="M19 11H13V5H11V11H5V13H11V19H13V13H19V11Z" fill="#080C09"/>
    </symbol>
    <symbol id="right-arrow-alt" viewBox="0 0 24 24">
      <path d="M11.293 17.293L12.707 18.707L19.414 12L12.707 5.29297L11.293 6.70697L15.586 11H6V13H15.586L11.293 17.293Z" fill="#080C09"/>
    </symbol>
    <symbol id="star" viewBox="0 0 24 24">
      <path d="M6.51603 14.323L5.02603 20.775C4.97989 20.9704 4.99374 21.1751 5.06577 21.3625C5.1378 21.5499 5.26467 21.7112 5.4298 21.8253C5.59492 21.9395 5.79064 22.0012 5.99138 22.0024C6.19212 22.0036 6.38855 21.9442 6.55503 21.832L12 18.202L17.445 21.832C17.6154 21.9451 17.8162 22.0033 18.0207 21.9988C18.2251 21.9944 18.4232 21.9274 18.5884 21.8069C18.7536 21.6865 18.878 21.5183 18.9448 21.3251C19.0116 21.1318 19.0176 20.9228 18.962 20.726L17.133 14.326L21.669 10.244C21.8143 10.1132 21.9181 9.94266 21.9674 9.75351C22.0168 9.56436 22.0097 9.36488 21.9469 9.17974C21.8841 8.99461 21.7685 8.83193 21.6142 8.71183C21.46 8.59173 21.2739 8.51947 21.079 8.504L15.378 8.05L12.911 2.589C12.8324 2.41316 12.7045 2.26384 12.5428 2.15906C12.3812 2.05429 12.1927 1.99854 12 1.99854C11.8074 1.99854 11.6189 2.05429 11.4572 2.15906C11.2956 2.26384 11.1677 2.41316 11.089 2.589L8.62203 8.05L2.92103 8.503C2.72948 8.51818 2.54636 8.58821 2.39358 8.70473C2.2408 8.82125 2.12482 8.97932 2.05952 9.16003C1.99422 9.34074 1.98236 9.53644 2.02537 9.72371C2.06838 9.91098 2.16443 10.0819 2.30203 10.216L6.51603 14.323ZM9.36903 9.997C9.54752 9.98294 9.71895 9.92112 9.86533 9.81802C10.0117 9.71491 10.1277 9.57433 10.201 9.411L12 5.43L13.799 9.411C13.8724 9.57433 13.9883 9.71491 14.1347 9.81802C14.2811 9.92112 14.4525 9.98294 14.631 9.997L18.603 10.312L15.332 13.256C15.048 13.512 14.935 13.906 15.039 14.274L16.292 18.659L12.556 16.168C12.392 16.0579 12.199 15.9992 12.0015 15.9992C11.804 15.9992 11.611 16.0579 11.447 16.168L7.54303 18.771L8.59303 14.225C8.63153 14.0578 8.62636 13.8835 8.57802 13.7189C8.52969 13.5543 8.43981 13.4048 8.31703 13.285L5.27903 10.323L9.36903 9.997Z" fill="#080C09"/>
    </symbol>
    <symbol id="up-arrow-alt" viewBox="0 0 24 24">
      <path d="M11 8.41394V17.9999H13V8.41394L17.293 12.7069L18.707 11.2929L12 4.58594L5.29297 11.2929L6.70697 12.7069L11 8.41394Z" fill="#080C09"/>
    </symbol>
  </defs>
</svg>